<?xml version="1.0" standalone="no"?><!DOCTYPE svg PUBLIC "-//W3C//DTD SVG 1.1//EN" "http://www.w3.org/Graphics/SVG/1.1/DTD/svg11.dtd"><svg class="icon" width="200px" height="200.00px" viewBox="0 0 1024 1024" version="1.1" xmlns="http://www.w3.org/2000/svg"><path fill="#235490" d="M234.453333 189.397333c48.64-28.074667 86.016-12.501333 123.392 37.12 43.946667 58.410667 73.472 115.456 26.154667 156.501334 0 0-51.626667 43.52 69.205333 171.648 141.525333 148.992 191.744 86.442667 191.744 86.442666 51.882667-51.797333 90.624-18.858667 149.290667 24.618667 58.624 43.434667 77.226667 87.338667 26.752 150.357333-97.194667 121.429333-325.461333-49.792-414.208-136.362666 0 0-135.722667-131.669333-180.906667-214.528l-24.704-44.288c-32.512-63.573333-47.36-134.997333-17.194666-185.258667 0 0 12.416-24.234667 50.474666-46.250667z"  /></svg>