<?xml version="1.0" standalone="no"?><!DOCTYPE svg PUBLIC "-//W3C//DTD SVG 1.1//EN" "http://www.w3.org/Graphics/SVG/1.1/DTD/svg11.dtd"><svg class="icon" width="200px" height="200.00px" viewBox="0 0 1024 1024" version="1.1" xmlns="http://www.w3.org/2000/svg"><path fill="#d81e06" d="M556.4 631.7L318.3 291.6v151.8c0 106.6 87.2 193.7 193.7 193.7 15.3 0 30.1-2 44.4-5.4zM512 725.9c-155.8 0-282.5-126.7-282.5-282.5 0-22.3-18.1-40.4-40.4-40.4s-40.4 18.1-40.4 40.4c0 183.9 137.3 336.1 314.8 359.9v108.3c0 26.6 21.8 48.4 48.4 48.4 26.6 0 48.4-21.8 48.4-48.4V803.3c34.1-4.6 66.6-13.9 97-27.3l-47.6-67.9c-30.4 11.3-63.3 17.8-97.7 17.8zM760.9 707.3c70.3-66.2 114.4-160 114.4-264 0-22.3-18.1-40.4-40.4-40.4s-40.4 18.1-40.4 40.4c0 76.6-30.8 146.1-80.5 197l-52.5-74.9c27.4-33.4 44.2-75.8 44.2-122.1V257.7C705.7 151.2 618.5 64 512 64c-60.8 0-115.1 28.5-150.7 72.8l-35.7-51c-10.2-14.5-30.4-18.1-45-7.9-14.5 10.2-18.1 30.4-7.9 45l494.7 706.6c10.2 14.5 30.4 18.1 45 7.9 14.5-10.2 18.1-30.4 7.9-45l-59.4-85.1z" /></svg>