<?xml version="1.0" standalone="no"?><!DOCTYPE svg PUBLIC "-//W3C//DTD SVG 1.1//EN" "http://www.w3.org/Graphics/SVG/1.1/DTD/svg11.dtd"><svg class="icon" width="200px" height="200.00px" viewBox="0 0 1024 1024" version="1.1" xmlns="http://www.w3.org/2000/svg"><path fill="#235490" d="M512 637.1c106.5 0 193.7-87.2 193.7-193.7V257.7C705.7 151.2 618.5 64 512 64c-106.6 0-193.7 87.2-193.7 193.7v185.7c0 106.5 87.1 193.7 193.7 193.7zM834.9 403c-22.3 0-40.4 18.1-40.4 40.4 0 155.8-126.7 282.5-282.5 282.5S229.5 599.2 229.5 443.4c0-22.3-18.1-40.4-40.4-40.4s-40.4 18.1-40.4 40.4c0 183.9 137.3 336.1 314.8 359.9v108.3c0 26.6 21.8 48.4 48.4 48.4 26.6 0 48.4-21.8 48.4-48.4V803.3c177.5-23.8 314.8-176.1 314.8-359.9 0.1-22.3-17.9-40.4-40.2-40.4z" /></svg>