<?xml version="1.0" standalone="no"?><!DOCTYPE svg PUBLIC "-//W3C//DTD SVG 1.1//EN" "http://www.w3.org/Graphics/SVG/1.1/DTD/svg11.dtd"><svg class="icon" width="200px" height="200.00px" viewBox="0 0 1024 1024" version="1.1" xmlns="http://www.w3.org/2000/svg"><path fill="#235490" d="M85.333333 266.666667A96 96 0 0 1 181.333333 170.666667h661.333334A96 96 0 0 1 938.666667 266.666667v490.666666A96 96 0 0 1 842.666667 853.333333H181.333333A96 96 0 0 1 85.333333 757.333333V266.666667z m96-32a32 32 0 0 0-32 32v490.666666c0 17.664 14.336 32 32 32h661.333334a32 32 0 0 0 32-32V266.666667a32 32 0 0 0-32-32H181.333333zM512 309.12a32 32 0 0 1 22.613333 9.386667l138.88 138.88a32 32 0 1 1-45.226666 45.226666L544 418.389333v275.072a32 32 0 0 1-64 0V418.474667L395.946667 502.613333a32 32 0 1 1-45.226667-45.226666l138.666667-138.837334a32 32 0 0 1 22.613333-9.386666z" /></svg>