<?xml version="1.0" standalone="no"?><!DOCTYPE svg PUBLIC "-//W3C//DTD SVG 1.1//EN" "http://www.w3.org/Graphics/SVG/1.1/DTD/svg11.dtd"><svg class="icon" width="200px" height="118.52px" viewBox="0 0 1728 1024" version="1.1" xmlns="http://www.w3.org/2000/svg"><path fill="#235490" d="M1302.272 627.008V396.736c0-23.04 7.296-49.536 17.344-60.608L1558.784 76.8C1637.12-8.128 1727.104-32 1727.104 59.008v905.792c0 90.88-90.048 67.2-168.32-17.664l-239.168-259.456c-10.048-10.88-17.344-37.504-17.344-60.672z m-113.088 309.44c0 47.296-36.352 85.632-81.28 85.632H81.216C36.352 1022.016 0 983.68 0 936.448V87.168C0 39.744 36.352 1.408 81.28 1.408h1026.752c44.864 0 81.28 38.4 81.28 85.632l-0.128 849.344z"  /></svg>