<?xml version="1.0" standalone="no"?><!DOCTYPE svg PUBLIC "-//W3C//DTD SVG 1.1//EN" "http://www.w3.org/Graphics/SVG/1.1/DTD/svg11.dtd"><svg class="icon" width="200px" height="186.69px" viewBox="0 0 1097 1024" version="1.1" xmlns="http://www.w3.org/2000/svg"><path fill="#d81e06" d="M404.772571 804.205714l327.68-467.968-0.073142 418.889143c0 27.062857-22.381714 49.005714-50.029715 49.005714H404.772571z m-267.849142 0H49.956571a49.517714 49.517714 0 0 1-49.956571-49.005714v-486.4c0-27.136 22.381714-49.078857 50.029714-49.078857h496.128l-409.234285 584.411428z m672.182857-226.304V446.025143c0-13.165714 4.900571-28.379429 11.702857-34.669714l162.230857-148.553143c53.028571-48.64 114.102857-62.244571 114.102857-10.166857v518.729142c0 52.077714-61.074286 38.473143-114.102857-10.093714l-162.230857-148.626286c-6.802286-6.217143-11.702857-21.430857-11.702857-34.742857zM776.045714 23.186286l59.977143 41.984-671.232 958.610285-59.977143-41.910857z" /></svg>